<svg xmlns="http://www.w3.org/2000/svg" width="463.02" height="211.22" viewBox="0 0 463.02 211.22">
  <g id="DNA_1" transform="translate(-21.98 -42.76)">
    <path id="Path_10638" data-name="Path 10638" d="M22,42.76c1.14.06,2.28.17,3.41.17,25.55.01,51.09-.05,76.64.03,16.36.05,30.69,5.46,42.69,16.72,12.52,11.75,19.79,26.08,19.95,43.33.27,30.35.45,60.71-.06,91.05-.47,28.01-22.19,53.28-49.85,58.01-10.31,1.76-21,1.33-31.76,1.91V206.9H94.37c11.62-.01,18.73-7.11,18.74-18.77q.015-39.855,0-79.7c-.01-11.46-7.16-18.53-18.69-18.54-6.08-.01-12.16.11-18.23-.05-2.36-.06-2.93.68-2.93,2.99q.09,78.255.05,156.51v4.08H21.98Q22.01,148.06,22,42.76Z" fill="#ffffff"/>
    <path id="Path_10639" data-name="Path 10639" d="M375.25,42.89h52.2a51.865,51.865,0,0,0,6.6-.06c2.76-.36,3.72.68,4.32,3.34q23.07,102.645,46.31,205.26c.13.58.2,1.16.32,1.9H434.36c-1.01-4.66-2.04-9.35-3.04-14.04-1.33-6.28-2.69-12.55-3.89-18.85-.37-1.96-1.25-2.49-3.19-2.48-10.04.09-20.09.04-30.13.04h-3.18c2.4-14.47,4.74-28.65,7.13-43.07h23.01c-5.39-27.4-10.7-54.44-16.02-81.49-.27,0-.54-.01-.81-.01q-14.685,79.86-29.38,159.85h-48.1Q351.03,148.04,375.25,42.89Z" fill="#ffffff"/>
    <path id="Path_10640" data-name="Path 10640" d="M180.32,42.89h2.96c12.51,0,25.02.04,37.52-.05a3.411,3.411,0,0,1,3.59,2.22q34.08,68.28,68.26,136.51,13.275,26.52,26.48,53.06a14.834,14.834,0,0,1,1.32,5.75c.19,4.2.06,8.42.06,12.9-1.1.06-2.03.16-2.95.16-11.36.01-22.73-.04-34.09.05a3.609,3.609,0,0,1-3.81-2.32q-24.81-49.065-49.75-98.05a5.328,5.328,0,0,0-1.78-2.21V253.3H180.31C180.32,183.29,180.32,113.32,180.32,42.89Z" fill="#ffffff"/>
    <path id="Path_10641" data-name="Path 10641" d="M272.24,42.98h48.08V215.83l-2.44-4.88q-22.23-44.43-44.41-88.87a11.694,11.694,0,0,1-1.18-5q-.105-35.34-.05-70.69C272.24,45.35,272.24,44.31,272.24,42.98Z" fill="#ffffff"/>
  </g>
</svg>
