<?xml version="1.0" encoding="UTF-8"?>
<svg id="Layer_1" data-name="Layer 1" xmlns="http://www.w3.org/2000/svg" xmlns:xlink="http://www.w3.org/1999/xlink" viewBox="0 0 137.61 118.53">
  <defs>
    <style>
      .cls-1 {
        fill: url(#linear-gradient-8);
      }

      .cls-2 {
        fill: url(#linear-gradient-7);
      }

      .cls-3 {
        fill: url(#linear-gradient-5);
      }

      .cls-4 {
        fill: url(#linear-gradient-6);
      }

      .cls-5 {
        fill: url(#linear-gradient-4);
      }

      .cls-6 {
        fill: url(#linear-gradient-3);
      }

      .cls-7 {
        fill: url(#linear-gradient-2);
      }

      .cls-8 {
        fill: url(#linear-gradient);
      }
    </style>
    <linearGradient id="linear-gradient" x1="76.55" y1="74.4" x2="59.24" y2="44.43" gradientUnits="userSpaceOnUse">
      <stop offset="0" stop-color="#dec874"/>
      <stop offset=".37" stop-color="#f3e9a6"/>
      <stop offset=".58" stop-color="#fdf9bd"/>
      <stop offset=".61" stop-color="#f7efaf"/>
      <stop offset=".74" stop-color="#e5d384"/>
      <stop offset=".8" stop-color="#dec874"/>
    </linearGradient>
    <linearGradient id="linear-gradient-2" x1="88.41" y1="87.13" x2="51.57" y2="23.32" xlink:href="#linear-gradient"/>
    <linearGradient id="linear-gradient-3" x1="31.73" y1="51.98" x2="27.35" y2="44.39" gradientTransform="translate(8.1 -4.11) rotate(9.22)" xlink:href="#linear-gradient"/>
    <linearGradient id="linear-gradient-4" x1="117.38" y1="19.75" x2="112.75" y2="11.74" gradientUnits="userSpaceOnUse">
      <stop offset="0" stop-color="#fdf9bd"/>
      <stop offset=".07" stop-color="#f7efaf"/>
      <stop offset=".31" stop-color="#e5d384"/>
      <stop offset=".43" stop-color="#dec874"/>
      <stop offset=".8" stop-color="#f3e9a6"/>
      <stop offset="1" stop-color="#fdf9bd"/>
    </linearGradient>
    <linearGradient id="linear-gradient-5" x1="135.34" y1="65.58" x2="132.15" y2="60.06" xlink:href="#linear-gradient-4"/>
    <linearGradient id="linear-gradient-6" x1="102.81" y1="109.39" x2="35.83" y2="-6.62" xlink:href="#linear-gradient-4"/>
    <linearGradient id="linear-gradient-7" x1="23.25" y1="16.88" x2="21.35" y2="13.59" xlink:href="#linear-gradient-4"/>
    <linearGradient id="linear-gradient-8" x1="7.49" y1="68.24" x2=".71" y2="56.5" xlink:href="#linear-gradient-4"/>
  </defs>
  <g>
    <path class="cls-8" d="M85.23,68.82l-7.9-6.55-15.06-13.21c-3.5-2.97-8.75-2.55-11.72.95l22.96,19.76c3.5,2.97,8.75,2.55,11.72-.95Z"/>
    <path class="cls-7" d="M98.98,66.93c-.84-6.14-5.07-10.7-9.28-14.93-.49-.49-1.01-.96-1.52-1.43-5-4.65-9.77-9.37-15.45-14.61-2.67-2.47-5.72-5.44-5.24-9.05.38-2.83,2.99-5.02,5.8-5.55,2.81-.53,5.72.33,8.24,1.68,4.81,2.58,8.6,7.02,10.4,12.17,1.34-6.6-.84-13.91-5.89-18.36-5.05-4.45-12.86-5.66-18.83-2.55-5.97,3.11-9.48,10.53-7.7,17.02,1.38,5.02,5.36,8.83,9.18,12.37,5.55,5.15,11.1,10.3,16.64,15.44,2.71,2.51,5.57,5.32,6.12,8.97.34,2.29-.32,4.66-1.47,6.67-1.62,2.82-4.31,5.1-7.48,5.85-5.76,1.37-11.4-2.3-16.1-5.89-1.93-1.48-3.85-2.97-5.75-4.48l-6.69-5.55c-1.75-1.52-3.5-3.05-5.23-4.6-1.72-1.55-3.48-3.14-5.48-4.27-3.5-2.8-8.6-2.33-11.52,1.11l10.85,9c6.51,5.47,6.75,5.74,13.26,11.22,4.24,3.56,8.54,7.17,13.53,9.55,5,2.39,10.85,3.46,16.12,1.74,3.63-1.19,6.65-3.74,9.16-6.62,3.22-3.71,4.84-8.85,4.46-13.79-.03-.36-.07-.73-.12-1.09Z"/>
    <circle class="cls-6" cx="29.54" cy="48.19" r="4.38" transform="translate(-7.34 5.35) rotate(-9.22)"/>
  </g>
  <g>
    <path class="cls-5" d="M120.67,17.73s-3.1-4.36-6.04-4.67c-2.63-.27-5.23.61-5.23.61,0,0,5.52,3.95,8.16,4.72,2.05.6,3.1-.67,3.1-.67Z"/>
    <path class="cls-3" d="M129.33,67.78s1.37.94,3.12-.65c2.26-2.04,5.16-10.22,5.16-10.22,0,0-2.5,1.46-4.59,3.43-2.34,2.2-3.69,7.45-3.69,7.45Z"/>
    <path class="cls-4" d="M126.12,76.56c3.07-6.61,4.82-13.84,5.19-21.5.24.08,1.61.39,2.91-1.38,1.85-2.52,3.24-11.18,3.24-11.18,0,0-2.19,2.01-3.9,4.42-1.51,2.13-2.06,5.98-2.23,7.49.03-.78.05-1.56.05-2.36,0-3.46-.28-6.87-.81-10.22.51-.09,1.54-.48,2.21-2.17,1.18-2.98.44-11.73.44-11.73,0,0-1.63,2.58-2.69,5.41-.55,1.46-.65,3.38-.6,5.03-.68-3.17-1.59-6.26-2.72-9.26.41-.13,1.54-.67,1.94-2.67.65-3.18-1.65-11.6-1.65-11.6,0,0-1.13,2.89-1.67,5.9-.37,2.03.16,4.66.63,6.44-1.44-3.45-3.18-6.76-5.21-9.87.3-.15,1.47-.88,1.5-3.09.04-3.26-3.88-10.98-3.88-10.98,0,0-.55,3.08-.5,6.14.04,2.56,1.59,5.75,2.37,7.19-1.31-1.94-2.72-3.81-4.25-5.59-.37-1.17-1.53-3.92-4.81-6.06-3.83-2.49-10.14-4.92-10.14-4.92,0,0,6.77,6.47,10.27,9.11,2.08,1.57,3.8,2.16,4.49,2.35,4.09,4.79,7.38,10.2,9.8,16.03-.9-1.51-2.34-3.47-3.99-4.03-2.49-.84-5.15-.54-5.15-.54,0,0,4.57,5.07,6.99,6.41,1.43.79,2.5.39,2.93.16,1.4,3.74,2.45,7.64,3.13,11.64-.48-1.57-1.68-4.87-3.59-6.02-2.28-1.37-4.92-1.66-4.92-1.66,0,0,3.55,5.97,5.69,7.82,1.41,1.21,2.62.89,2.96.76.51,3.28.78,6.63.78,10.02,0,1-.03,2-.07,2.99-.06-.69-.53-5.58-2.6-7.5-2-1.85-4.54-2.72-4.54-2.72,0,0,2.47,6.64,4.26,8.92,1.32,1.68,2.74,1.41,2.88,1.38-.21,4.27-.87,8.4-1.93,12.37.08-1.11.29-5.57-1.32-7.77-1.66-2.26-4.01-3.67-4.01-3.67,0,0,1.33,7.07,2.7,9.7.98,1.87,2.33,1.99,2.56,1.99-1.03,3.74-2.42,7.34-4.19,10.75.35-1.69.84-5.02-.17-7.1-1.25-2.58-3.32-4.48-3.32-4.48,0,0,.12,7.23,1.02,10.11.52,1.65,1.48,2.24,1.95,2.44-2.09,3.84-4.64,7.44-7.66,10.77.62-1.45,1.89-4.87,1.23-7.28-.77-2.81-2.48-5.13-2.48-5.13,0,0-1.15,7.11-.79,10.14.21,1.78,1.09,2.56,1.51,2.84-.39.42-.78.85-1.19,1.27-2.04,2.06-4.27,3.99-6.64,5.79,1.06-1.43,2.5-3.75,2.48-5.81-.03-2.93-1.1-5.68-1.1-5.68,0,0-2.95,6.49-3.4,9.5-.24,1.6.26,2.58.61,3.04-2.6,1.86-5.38,3.56-8.31,5.09,1.14-.84,4.21-3.3,4.73-5.89.58-2.86.06-5.8.06-5.8,0,0-4.29,5.67-5.4,8.5-.76,1.95-.04,3.18.14,3.43-2.95,1.52-6.04,2.85-9.25,4.01,1.53-.77,4.74-2.62,5.64-4.92,1.07-2.74.99-5.71.99-5.71,0,0-5.38,4.93-7.03,7.56-1.11,1.76-.61,3.06-.46,3.39-3.73,1.29-7.62,2.34-11.61,3.09-2.92.55-5.35,1.34-7.39,2.23-2.04-.89-4.47-1.68-7.39-2.23-3.99-.76-7.87-1.8-11.61-3.09.15-.32.65-1.62-.46-3.39-1.65-2.62-7.03-7.56-7.03-7.56,0,0-.08,2.97.99,5.71.9,2.31,4.11,4.15,5.64,4.92-3.21-1.15-6.3-2.49-9.25-4.01.18-.26.9-1.49.14-3.43-1.1-2.84-5.4-8.5-5.4-8.5,0,0-.52,2.93.06,5.8.52,2.59,3.59,5.05,4.73,5.89-2.92-1.53-5.71-3.23-8.31-5.09.34-.47.85-1.44.61-3.04-.45-3.02-3.4-9.5-3.4-9.5,0,0-1.07,2.75-1.1,5.68-.02,2.06,1.41,4.37,2.48,5.81-2.38-1.8-4.61-3.73-6.64-5.79-.41-.42-.8-.84-1.19-1.27.41-.28,1.29-1.06,1.51-2.84.36-3.03-.79-10.14-.79-10.14,0,0-1.71,2.33-2.48,5.13-.66,2.41.61,5.83,1.23,7.28-3.01-3.33-5.57-6.93-7.66-10.77.47-.2,1.43-.79,1.94-2.44.9-2.89,1.02-10.11,1.02-10.11,0,0-2.08,1.9-3.32,4.48-1.01,2.08-.52,5.41-.17,7.1-1.77-3.41-3.17-7.01-4.19-10.75.23,0,1.58-.13,2.56-1.99,1.38-2.63,2.7-9.7,2.7-9.7,0,0-2.35,1.41-4.01,3.67-1.61,2.2-1.4,6.65-1.32,7.77-1.07-3.97-1.73-8.1-1.93-12.37.13.03,1.56.3,2.88-1.38,1.79-2.28,4.26-8.92,4.26-8.92,0,0-2.54.87-4.54,2.72-2.07,1.92-2.54,6.81-2.6,7.5-.05-.99-.07-1.99-.07-2.99,0-3.39.27-6.73.78-10.02.34.13,1.56.45,2.96-.76,2.14-1.84,5.69-7.82,5.69-7.82,0,0-2.65.29-4.92,1.66-1.91,1.15-3.11,4.44-3.59,6.02.68-4,1.73-7.9,3.13-11.64.43.23,1.5.63,2.93-.16,2.42-1.34,6.99-6.41,6.99-6.41,0,0-2.66-.3-5.15.54-1.65.56-3.08,2.52-3.99,4.03,2.42-5.83,5.71-11.24,9.8-16.03.69-.19,2.41-.78,4.49-2.35,3.5-2.65,10.27-9.11,10.27-9.11,0,0-6.31,2.44-10.14,4.92-3.28,2.13-4.44,4.89-4.81,6.06-1.53,1.78-2.95,3.65-4.25,5.59.78-1.44,2.33-4.62,2.37-7.19.05-3.07-.5-6.14-.5-6.14,0,0-3.92,7.72-3.88,10.98.03,2.21,1.2,2.94,1.5,3.09-2.03,3.12-3.77,6.42-5.21,9.87.47-1.78,1-4.41.63-6.44-.54-3.01-1.67-5.9-1.67-5.9,0,0-2.3,8.41-1.65,11.6.41,2,1.53,2.54,1.94,2.67-1.13,2.99-2.05,6.09-2.72,9.26.05-1.65-.05-3.57-.6-5.03-1.07-2.83-2.69-5.41-2.69-5.41,0,0-.74,8.75.44,11.73.67,1.69,1.7,2.08,2.21,2.17-.53,3.35-.81,6.77-.81,10.22,0,.79.02,1.57.05,2.36-.17-1.51-.72-5.36-2.23-7.49-1.71-2.41-3.9-4.42-3.9-4.42,0,0,1.39,8.66,3.24,11.18,1.3,1.77,2.66,1.46,2.91,1.38.36,7.66,2.12,14.89,5.19,21.5-.88-1.33-2.03-2.76-3.26-3.5-2.4-1.45-5.09-2.3-5.09-2.3,0,0,4.31,7.36,6.88,8.84,1.61.92,2.67.31,3.03.03,1.73,3.18,3.78,6.21,6.14,9.05-1.19-1.06-2.69-2.18-4.1-2.56-2.65-.72-5.45-.78-5.45-.78,0,0,5.88,5.91,8.73,6.61,1.8.44,2.68-.49,2.95-.85.41.44.81.88,1.24,1.31,1.55,1.57,3.21,3.06,4.96,4.48-1.29-.75-2.8-1.44-4.14-1.54-2.75-.21-5.52.27-5.52.27,0,0,6.74,4.72,9.7,4.86,1.86.09,2.59-.98,2.81-1.39,2.49,1.8,5.14,3.45,7.92,4.95-1.6-.75-4.37-1.85-6.48-1.66-2.82.26-5.54,1.19-5.54,1.19,0,0,7.56,3.52,10.61,3.15,2.24-.27,2.66-1.83,2.7-2,2.72,1.4,5.56,2.64,8.5,3.73-1.84-.48-4.77-1.07-6.84-.57-2.89.69-5.55,2.02-5.55,2.02,0,0,8.42,2.32,11.58,1.48,2.1-.56,2.44-1.94,2.5-2.32,3.72,1.28,7.59,2.32,11.57,3.07,2.7.51,4.98,1.22,6.9,2.03-2.85,1.32-4.86,2.85-6.25,4.21.16.05.33.11.49.16,1.41-1.35,3.45-2.84,6.32-4.12,2.87,1.28,4.91,2.77,6.32,4.12.16-.05.33-.1.49-.16-1.39-1.36-3.4-2.89-6.25-4.21,1.93-.81,4.21-1.52,6.9-2.03,3.98-.75,7.85-1.79,11.57-3.07.05.38.4,1.77,2.5,2.32,3.16.83,11.58-1.48,11.58-1.48,0,0-2.66-1.33-5.55-2.02-2.07-.49-5,.09-6.84.57,2.94-1.09,5.78-2.33,8.5-3.73.04.17.46,1.73,2.7,2,3.06.37,10.61-3.15,10.61-3.15,0,0-2.73-.93-5.54-1.19-2.11-.2-4.88.91-6.48,1.66,2.78-1.5,5.44-3.15,7.92-4.95.22.42.95,1.48,2.81,1.39,2.96-.14,9.7-4.86,9.7-4.86,0,0-2.77-.47-5.52-.27-1.34.1-2.86.79-4.14,1.54,1.75-1.42,3.41-2.91,4.96-4.48.42-.43.83-.87,1.24-1.31.27.36,1.14,1.29,2.95.85,2.85-.7,8.73-6.61,8.73-6.61,0,0-2.79.06-5.45.78-1.41.38-2.91,1.5-4.1,2.56,2.36-2.84,4.41-5.87,6.14-9.05.36.28,1.43.9,3.03-.03,2.58-1.48,6.88-8.84,6.88-8.84,0,0-2.69.85-5.09,2.3-1.24.74-2.38,2.17-3.26,3.5Z"/>
    <path class="cls-2" d="M22.98,13.06c-2.94.31-6.04,4.67-6.04,4.67,0,0,1.06,1.27,3.1.67,2.64-.77,8.16-4.72,8.16-4.72,0,0-2.6-.89-5.23-.61Z"/>
    <path class="cls-1" d="M8.28,67.78s-1.35-5.25-3.69-7.45c-2.1-1.97-4.59-3.43-4.59-3.43,0,0,2.91,8.18,5.16,10.22,1.75,1.59,3.12.65,3.12.65Z"/>
  </g>
</svg>