<?xml version="1.0" encoding="UTF-8"?>
<svg id="Layer_1" data-name="Layer 1" xmlns="http://www.w3.org/2000/svg" xmlns:xlink="http://www.w3.org/1999/xlink" viewBox="0 0 294.69 294.69">
  <defs>
    <style>
      .cls-1 {
        fill: url(#linear-gradient-8);
      }

      .cls-2 {
        fill: url(#linear-gradient-7);
      }

      .cls-3 {
        fill: url(#linear-gradient-5);
      }

      .cls-4 {
        fill: url(#linear-gradient-6);
      }

      .cls-5 {
        fill: url(#linear-gradient-9);
      }

      .cls-6 {
        fill: url(#linear-gradient-4);
      }

      .cls-7 {
        fill: url(#linear-gradient-3);
      }

      .cls-8 {
        fill: url(#linear-gradient-2);
      }

      .cls-9 {
        fill: url(#linear-gradient);
      }
    </style>
    <linearGradient id="linear-gradient" x1="221.03" y1="274.97" x2="73.66" y2="19.72" gradientUnits="userSpaceOnUse">
      <stop offset="0" stop-color="#fff5a8"/>
      <stop offset=".19" stop-color="#e0be59"/>
      <stop offset=".4" stop-color="#bd8100"/>
      <stop offset="1" stop-color="#f1dc83"/>
    </linearGradient>
    <linearGradient id="linear-gradient-2" x1="224.69" y1="94.77" x2="217.33" y2="82.01" gradientUnits="userSpaceOnUse">
      <stop offset="0" stop-color="#fdf9bd"/>
      <stop offset=".07" stop-color="#f7efaf"/>
      <stop offset=".31" stop-color="#e5d384"/>
      <stop offset=".43" stop-color="#dec874"/>
      <stop offset=".8" stop-color="#f3e9a6"/>
      <stop offset="1" stop-color="#fdf9bd"/>
    </linearGradient>
    <linearGradient id="linear-gradient-3" x1="253.29" y1="167.75" x2="248.22" y2="158.96" xlink:href="#linear-gradient-2"/>
    <linearGradient id="linear-gradient-4" x1="159.2" y1="174.66" x2="134.51" y2="131.89" gradientUnits="userSpaceOnUse">
      <stop offset="0" stop-color="#dec874"/>
      <stop offset=".37" stop-color="#f3e9a6"/>
      <stop offset=".58" stop-color="#fdf9bd"/>
      <stop offset=".61" stop-color="#f7efaf"/>
      <stop offset=".74" stop-color="#e5d384"/>
      <stop offset=".8" stop-color="#dec874"/>
    </linearGradient>
    <linearGradient id="linear-gradient-5" x1="95.25" y1="142.66" x2="88.99" y2="131.83" gradientTransform="translate(23.17 -12.98) rotate(9.22)" xlink:href="#linear-gradient-4"/>
    <linearGradient id="linear-gradient-6" x1="176.14" y1="192.82" x2="123.57" y2="101.76" xlink:href="#linear-gradient-4"/>
    <linearGradient id="linear-gradient-7" x1="201.49" y1="237.52" x2="94.83" y2="52.78" xlink:href="#linear-gradient-2"/>
    <linearGradient id="linear-gradient-8" x1="74.8" y1="90.19" x2="71.78" y2="84.95" xlink:href="#linear-gradient-2"/>
    <linearGradient id="linear-gradient-9" x1="49.7" y1="171.99" x2="38.91" y2="153.29" xlink:href="#linear-gradient-2"/>
  </defs>
  <circle class="cls-9" cx="147.35" cy="147.35" r="147.35"/>
  <g>
    <path class="cls-8" d="M229.94,91.55s-4.94-6.95-9.62-7.44c-4.19-.44-8.32.98-8.32.98,0,0,8.8,6.29,13,7.52,3.26.96,4.94-1.06,4.94-1.06Z"/>
    <path class="cls-7" d="M243.72,171.25s2.18,1.49,4.97-1.04c3.59-3.26,8.22-16.28,8.22-16.28,0,0-3.97,2.32-7.31,5.46-3.73,3.5-5.88,11.86-5.88,11.86Z"/>
    <g>
      <path class="cls-6" d="M171.6,166.69l-11.28-9.35-21.49-18.85c-5-4.24-12.49-3.63-16.73,1.36l32.76,28.2c5,4.24,12.49,3.63,16.73-1.36Z"/>
      <circle class="cls-3" cx="92.12" cy="137.24" r="6.25" transform="translate(-20.79 16.53) rotate(-9.22)"/>
      <g>
        <path class="cls-4" d="M191.22,164c-1.2-8.76-7.24-15.28-13.24-21.3-.7-.7-1.44-1.37-2.17-2.05-7.14-6.64-13.94-13.37-22.04-20.86-3.81-3.52-8.16-7.77-7.48-12.91.54-4.04,4.27-7.16,8.27-7.92,4.01-.75,8.16.47,11.76,2.4,6.87,3.68,12.28,10.01,14.84,17.37,1.91-9.41-1.21-19.85-8.41-26.2-7.2-6.36-18.35-8.07-26.87-3.64-8.52,4.44-13.52,15.02-10.98,24.29,1.97,7.16,7.65,12.6,13.09,17.65,7.92,7.35,15.83,14.69,23.75,22.04,3.86,3.59,7.95,7.59,8.73,12.8.48,3.27-.45,6.64-2.1,9.51-2.31,4.03-6.15,7.28-10.67,8.35-8.21,1.96-16.26-3.29-22.97-8.41-2.76-2.11-5.49-4.24-8.21-6.4l-9.55-7.92c-2.5-2.17-4.99-4.35-7.46-6.57-2.46-2.21-4.97-4.48-7.83-6.09-4.99-3.99-12.28-3.32-16.45,1.58l15.48,12.84c9.29,7.81,9.63,8.2,18.92,16.01,6.05,5.09,12.18,10.23,19.31,13.63,7.13,3.4,15.49,4.93,23,2.48,5.18-1.7,9.5-5.33,13.07-9.45,4.6-5.29,6.91-12.62,6.37-19.69-.04-.52-.09-1.04-.17-1.56Z"/>
        <path class="cls-2" d="M238.61,185.24c4.89-10.53,7.68-22.05,8.26-34.25.39.12,2.56.63,4.63-2.2,2.94-4.02,5.16-17.81,5.16-17.81,0,0-3.49,3.2-6.2,7.04-2.4,3.4-3.29,9.52-3.55,11.93.05-1.24.09-2.49.09-3.75,0-5.51-.45-10.95-1.29-16.28.81-.14,2.46-.77,3.52-3.45,1.89-4.74.71-18.68.71-18.68,0,0-2.59,4.11-4.29,8.62-.88,2.32-1.03,5.38-.95,8.01-1.08-5.05-2.53-9.97-4.34-14.74.66-.21,2.45-1.06,3.09-4.25,1.03-5.07-2.63-18.47-2.63-18.47,0,0-1.8,4.6-2.66,9.4-.58,3.23.25,7.42,1,10.25-2.29-5.49-5.07-10.76-8.3-15.72.47-.24,2.34-1.4,2.39-4.91.07-5.19-6.18-17.49-6.18-17.49,0,0-.87,4.9-.8,9.79.06,4.08,2.54,9.15,3.78,11.44-2.08-3.09-4.34-6.07-6.78-8.91-.58-1.86-2.44-6.25-7.66-9.64-6.09-3.96-16.14-7.84-16.14-7.84,0,0,10.79,10.3,16.36,14.51,3.32,2.5,6.05,3.44,7.15,3.75,6.51,7.63,11.76,16.25,15.61,25.53-1.44-2.4-3.73-5.53-6.35-6.42-3.96-1.34-8.2-.86-8.2-.86,0,0,7.28,8.08,11.13,10.21,2.28,1.26,3.98.62,4.67.25,2.23,5.96,3.91,12.16,4.99,18.53-.77-2.51-2.68-7.75-5.72-9.58-3.62-2.19-7.84-2.65-7.84-2.65,0,0,5.66,9.51,9.06,12.45,2.24,1.93,4.18,1.41,4.72,1.21.81,5.23,1.25,10.56,1.25,15.95,0,1.6-.04,3.19-.12,4.76-.09-1.1-.84-8.89-4.14-11.95-3.18-2.95-7.23-4.32-7.23-4.32,0,0,3.93,10.58,6.78,14.21,2.1,2.68,4.37,2.25,4.58,2.2-.33,6.8-1.38,13.38-3.08,19.7.13-1.77.46-8.87-2.11-12.37-2.64-3.59-6.38-5.84-6.38-5.84,0,0,2.11,11.25,4.3,15.45,1.55,2.97,3.71,3.16,4.08,3.17-1.64,5.96-3.86,11.69-6.68,17.12.56-2.69,1.34-7.99-.26-11.31-1.99-4.11-5.29-7.14-5.29-7.14,0,0,.19,11.51,1.62,16.11.82,2.63,2.35,3.57,3.1,3.88-3.33,6.11-7.39,11.85-12.19,17.15.99-2.31,3.02-7.76,1.96-11.6-1.23-4.47-3.96-8.17-3.96-8.17,0,0-1.84,11.33-1.26,16.15.34,2.83,1.74,4.08,2.4,4.53-.63.68-1.25,1.36-1.9,2.02-3.24,3.29-6.79,6.36-10.58,9.23,1.7-2.28,3.98-5.97,3.95-9.25-.04-4.67-1.75-9.05-1.75-9.05,0,0-4.7,10.33-5.41,15.13-.38,2.55.42,4.11.97,4.85-4.14,2.97-8.57,5.67-13.23,8.11,1.82-1.34,6.71-5.25,7.54-9.38.92-4.56.09-9.23.09-9.23,0,0-6.83,9.02-8.59,13.54-1.21,3.1-.06,5.06.22,5.47-4.69,2.42-9.62,4.54-14.73,6.38,2.43-1.23,7.55-4.17,8.98-7.84,1.7-4.36,1.58-9.09,1.58-9.09,0,0-8.57,7.86-11.2,12.03-1.77,2.8-.97,4.88-.73,5.39-5.95,2.06-12.13,3.72-18.49,4.92-4.65.88-8.52,2.13-11.77,3.55-3.24-1.42-7.12-2.67-11.77-3.55-6.36-1.21-12.54-2.87-18.49-4.92.25-.51,1.04-2.59-.73-5.39-2.63-4.18-11.2-12.03-11.2-12.03,0,0-.12,4.73,1.58,9.09,1.43,3.67,6.55,6.62,8.98,7.84-5.11-1.83-10.04-3.96-14.73-6.38.28-.41,1.43-2.37.22-5.47-1.76-4.52-8.59-13.54-8.59-13.54,0,0-.83,4.67.09,9.23.83,4.13,5.71,8.04,7.54,9.38-4.65-2.44-9.09-5.14-13.23-8.11.55-.74,1.35-2.3.97-4.85-.71-4.8-5.41-15.13-5.41-15.13,0,0-1.71,4.39-1.75,9.05-.03,3.28,2.25,6.97,3.95,9.25-3.79-2.87-7.33-5.94-10.58-9.23-.65-.66-1.27-1.34-1.9-2.02.66-.44,2.06-1.7,2.4-4.53.58-4.82-1.26-16.15-1.26-16.15,0,0-2.73,3.7-3.96,8.17-1.06,3.84.97,9.29,1.96,11.6-4.8-5.3-8.87-11.04-12.19-17.15.75-.31,2.27-1.25,3.1-3.88,1.44-4.6,1.63-16.11,1.63-16.11,0,0-3.31,3.03-5.29,7.14-1.6,3.32-.82,8.62-.26,11.31-2.82-5.44-5.04-11.16-6.68-17.12.37-.01,2.52-.2,4.08-3.17,2.19-4.19,4.3-15.45,4.3-15.45,0,0-3.75,2.25-6.38,5.84-2.56,3.5-2.23,10.6-2.11,12.37-1.7-6.32-2.75-12.9-3.08-19.7.21.05,2.48.48,4.58-2.2,2.85-3.63,6.78-14.21,6.78-14.21,0,0-4.05,1.38-7.23,4.32-3.3,3.05-4.05,10.84-4.14,11.95-.07-1.58-.12-3.16-.12-4.76,0-5.39.44-10.72,1.25-15.95.54.2,2.48.72,4.72-1.21,3.4-2.94,9.06-12.45,9.06-12.45,0,0-4.22.46-7.84,2.65-3.03,1.83-4.95,7.08-5.72,9.58,1.08-6.37,2.75-12.58,4.99-18.53.68.37,2.38,1.01,4.67-.25,3.85-2.13,11.13-10.21,11.13-10.21,0,0-4.24-.48-8.2.86-2.62.89-4.91,4.02-6.35,6.42,3.85-9.28,9.1-17.9,15.61-25.53,1.1-.31,3.83-1.24,7.15-3.75,5.58-4.21,16.36-14.51,16.36-14.51,0,0-10.05,3.88-16.14,7.84-5.22,3.39-7.08,7.78-7.66,9.64-2.44,2.84-4.69,5.82-6.78,8.91,1.24-2.29,3.72-7.36,3.78-11.44.07-4.88-.8-9.79-.8-9.79,0,0-6.25,12.3-6.18,17.49.05,3.52,1.91,4.68,2.39,4.91-3.24,4.96-6.01,10.23-8.3,15.72.75-2.83,1.59-7.02,1-10.25-.86-4.79-2.66-9.4-2.66-9.4,0,0-3.66,13.4-2.63,18.47.65,3.19,2.44,4.04,3.09,4.25-1.81,4.77-3.26,9.69-4.34,14.74.08-2.63-.07-5.69-.95-8.01-1.7-4.51-4.29-8.62-4.29-8.62,0,0-1.18,13.93.71,18.68,1.07,2.69,2.71,3.31,3.52,3.45-.84,5.34-1.29,10.77-1.29,16.28,0,1.26.04,2.51.09,3.75-.27-2.41-1.15-8.53-3.55-11.93-2.72-3.84-6.2-7.04-6.2-7.04,0,0,2.22,13.79,5.16,17.81,2.07,2.83,4.24,2.32,4.63,2.2.58,12.2,3.37,23.71,8.26,34.25-1.4-2.11-3.23-4.39-5.2-5.57-3.82-2.3-8.11-3.66-8.11-3.66,0,0,6.86,11.72,10.96,14.08,2.56,1.47,4.26.49,4.83.04,2.75,5.07,6.01,9.89,9.77,14.42-1.89-1.7-4.28-3.47-6.53-4.08-4.23-1.15-8.68-1.24-8.68-1.24,0,0,9.37,9.41,13.91,10.53,2.87.7,4.27-.78,4.69-1.35.65.7,1.29,1.41,1.97,2.09,2.47,2.5,5.11,4.87,7.9,7.13-2.05-1.19-4.47-2.3-6.6-2.46-4.37-.33-8.79.42-8.79.42,0,0,10.74,7.52,15.45,7.75,2.96.14,4.13-1.55,4.47-2.22,3.96,2.87,8.18,5.5,12.62,7.89-2.55-1.19-6.96-2.95-10.32-2.64-4.49.42-8.83,1.9-8.83,1.9,0,0,12.03,5.6,16.9,5.02,3.57-.43,4.24-2.91,4.3-3.19,4.33,2.22,8.85,4.2,13.53,5.93-2.92-.77-7.59-1.7-10.89-.92-4.59,1.1-8.84,3.22-8.84,3.22,0,0,13.41,3.69,18.45,2.36,3.35-.88,3.89-3.09,3.98-3.7,5.93,2.04,12.09,3.69,18.43,4.89,4.29.81,7.92,1.94,10.99,3.23-4.54,2.11-7.74,4.54-9.95,6.71.26.09.52.17.78.25,2.25-2.14,5.5-4.52,10.07-6.56,4.57,2.04,7.82,4.42,10.07,6.56.26-.08.52-.17.78-.25-2.21-2.17-5.41-4.6-9.95-6.71,3.07-1.29,6.7-2.41,10.99-3.23,6.33-1.2,12.5-2.85,18.43-4.89.09.61.63,2.81,3.98,3.7,5.03,1.33,18.45-2.36,18.45-2.36,0,0-4.24-2.12-8.84-3.22-3.3-.79-7.97.15-10.89.92,4.68-1.73,9.2-3.71,13.53-5.93.06.27.73,2.76,4.3,3.19,4.87.58,16.9-5.02,16.9-5.02,0,0-4.34-1.48-8.83-1.9-3.36-.31-7.77,1.44-10.32,2.64,4.43-2.39,8.66-5.02,12.62-7.89.34.66,1.51,2.36,4.47,2.22,4.72-.23,15.45-7.75,15.45-7.75,0,0-4.42-.75-8.79-.42-2.13.16-4.55,1.26-6.6,2.46,2.78-2.26,5.43-4.63,7.9-7.13.68-.68,1.32-1.39,1.97-2.09.42.57,1.82,2.05,4.69,1.35,4.54-1.11,13.91-10.53,13.91-10.53,0,0-4.45.1-8.68,1.24-2.25.61-4.64,2.39-6.53,4.08,3.76-4.53,7.02-9.34,9.77-14.42.57.44,2.27,1.43,4.83-.04,4.1-2.36,10.96-14.08,10.96-14.08,0,0-4.29,1.36-8.11,3.66-1.97,1.19-3.79,3.46-5.2,5.57Z"/>
      </g>
    </g>
    <path class="cls-1" d="M74.37,84.11c-4.68.49-9.62,7.44-9.62,7.44,0,0,1.68,2.02,4.94,1.06,4.2-1.23,13-7.52,13-7.52,0,0-4.13-1.42-8.32-.98Z"/>
    <path class="cls-5" d="M50.97,171.25s-2.15-8.36-5.88-11.86c-3.34-3.14-7.31-5.46-7.31-5.46,0,0,4.63,13.02,8.22,16.28,2.79,2.53,4.97,1.04,4.97,1.04Z"/>
  </g>
</svg>