<?xml version="1.0" encoding="UTF-8"?>
<svg id="Layer_1" data-name="Layer 1" xmlns="http://www.w3.org/2000/svg" xmlns:xlink="http://www.w3.org/1999/xlink" viewBox="0 0 319.56 81.58">
  <defs>
    <style>
      .cls-1 {
        fill: url(#linear-gradient-5);
      }

      .cls-2 {
        fill: url(#linear-gradient-4);
      }

      .cls-3 {
        fill: url(#linear-gradient-3);
      }

      .cls-4 {
        fill: url(#linear-gradient-2);
      }

      .cls-5 {
        fill: url(#linear-gradient);
      }

      .cls-6 {
        fill: #e2513c;
      }
    </style>
    <linearGradient id="linear-gradient" x1="74.67" y1="50.29" x2="9.83" y2="50.29" gradientUnits="userSpaceOnUse">
      <stop offset=".22" stop-color="#e2513c"/>
      <stop offset=".25" stop-color="#e45b32"/>
      <stop offset=".31" stop-color="#ea7120"/>
      <stop offset=".39" stop-color="#ef8211"/>
      <stop offset=".49" stop-color="#f28e07"/>
      <stop offset=".62" stop-color="#f49501"/>
      <stop offset="1" stop-color="#f59700"/>
    </linearGradient>
    <linearGradient id="linear-gradient-2" x1="77.53" y1="41.39" x2="-3.12" y2="41.39" xlink:href="#linear-gradient"/>
    <linearGradient id="linear-gradient-3" x1="80.65" y1="38.52" x2="0" y2="38.52" gradientTransform="translate(6.23 -.24) rotate(9.22)" xlink:href="#linear-gradient"/>
    <linearGradient id="linear-gradient-4" x1="229.77" y1="50.21" x2="149.12" y2="50.21" gradientTransform="translate(10.03 -23.97) rotate(9.22)" xlink:href="#linear-gradient"/>
    <linearGradient id="linear-gradient-5" x1="176.51" y1="4.59" x2="95.86" y2="4.59" gradientTransform="translate(2.03 -16.03) rotate(9.22)" xlink:href="#linear-gradient"/>
  </defs>
  <path class="cls-5" d="M62.95,60.14l-8.28-6.87-15.77-13.84c-3.67-3.12-9.17-2.67-12.28,1l24.05,20.71c3.67,3.12,9.17,2.67,12.28-1Z"/>
  <path class="cls-4" d="M77.35,58.16c-.88-6.43-5.32-11.22-9.72-15.64-.51-.52-1.06-1.01-1.59-1.5-5.24-4.88-10.24-9.82-16.18-15.31-2.8-2.59-5.99-5.7-5.49-9.48.39-2.97,3.13-5.26,6.08-5.81,2.94-.55,5.99.35,8.63,1.76,5.04,2.7,9.01,7.35,10.89,12.76,1.4-6.91-.88-14.57-6.17-19.24C58.5,1.03,50.32-.24,44.07,3.02c-6.25,3.26-9.93,11.03-8.06,17.83,1.44,5.26,5.62,9.25,9.61,12.96,5.81,5.39,11.63,10.79,17.44,16.18,2.84,2.63,5.84,5.57,6.41,9.4.36,2.4-.33,4.88-1.54,6.99-1.7,2.96-4.52,5.34-7.83,6.13-6.03,1.44-11.94-2.41-16.87-6.18-2.03-1.55-4.03-3.11-6.03-4.7l-7.01-5.82c-1.84-1.59-3.67-3.2-5.48-4.82-1.81-1.62-3.65-3.29-5.75-4.47-3.66-2.93-9.02-2.44-12.07,1.16l11.36,9.43c6.82,5.73,7.07,6.02,13.89,11.75,4.44,3.73,8.94,7.51,14.18,10.01s11.37,3.62,16.89,1.82c3.81-1.24,6.97-3.92,9.6-6.94,3.37-3.88,5.07-9.27,4.67-14.45-.03-.38-.07-.76-.12-1.14Z"/>
  <circle class="cls-3" cx="4.59" cy="38.52" r="4.59" transform="translate(-6.11 1.23) rotate(-9.22)"/>
  <path class="cls-6" d="M114.5,27.24c.09,1.59,1.21,3.13,3.64,3.13,1.82,0,2.71-.98,2.71-2.01,0-.84-.56-1.54-2.29-1.91l-2.66-.61c-4.95-1.07-6.91-3.88-6.91-7.14,0-4.25,3.74-7.7,8.92-7.7,6.72,0,9.06,4.2,9.29,6.91l-5.88,1.07c-.19-1.54-1.17-2.85-3.32-2.85-1.35,0-2.52.79-2.52,2.01,0,.98.79,1.54,1.82,1.73l3.08.61c4.81.98,7.14,3.88,7.14,7.28,0,3.97-3.04,7.84-9.25,7.84-7.28,0-9.62-4.72-9.81-7.28l6.02-1.07Z"/>
  <path class="cls-6" d="M138.78,34.89h-7.1V1.09h7.1v12.09c1.45-1.45,3.88-2.1,5.93-2.1,6.07,0,8.78,4.16,8.78,9.24v14.57h-7.1v-13.35c0-2.29-1.21-4.02-3.78-4.02-2.24,0-3.69,1.59-3.83,3.74v13.63Z"/>
  <path class="cls-6" d="M175.11,31.91c-1.03,2.24-3.36,3.64-6.26,3.64-6.82,0-11.53-5.18-11.53-12.33s4.44-12.23,11.3-12.23c4.16,0,5.98,2.29,6.44,3.36v-2.66h6.86v19.05c0,2.15.14,3.64.19,4.16h-6.82c-.09-.51-.19-1.77-.19-2.75v-.23ZM169.79,29.43c2.85,0,5.28-2.24,5.28-6.16s-2.38-6.12-5.28-6.12-5.32,2.1-5.32,6.12,2.38,6.16,5.32,6.16Z"/>
  <path class="cls-6" d="M193.21,34.89h-7.1V11.69h6.86v2.66c1.26-2.19,4.11-3.27,6.49-3.27,5.84,0,8.45,4.16,8.45,9.24v14.57h-7.1v-13.35c0-2.29-1.21-4.02-3.78-4.02-2.33,0-3.83,1.73-3.83,4.06v13.31Z"/>
  <path class="cls-6" d="M112.87,57.4c-.23-1.54-1.49-4.16-5.51-4.16-2.75,0-4.53,1.73-4.53,3.55,0,1.59.98,2.75,3.27,3.18l4.44.84c6.3,1.17,9.57,5.23,9.57,9.95,0,5.18-4.34,10.46-12.23,10.46-9.15,0-13.07-5.93-13.54-10.6l6.77-1.63c.28,3.04,2.33,5.7,6.86,5.7,2.9,0,4.67-1.4,4.67-3.46,0-1.68-1.35-2.89-3.55-3.31l-4.53-.84c-5.6-1.07-9.01-4.81-9.01-9.71,0-6.26,5.51-10.65,11.86-10.65,8.26,0,11.39,4.95,12.09,8.82l-6.63,1.87Z"/>
  <path class="cls-6" d="M131.08,80.51h-7.1v-33.8h7.1v12.09c1.45-1.45,3.88-2.1,5.93-2.1,6.07,0,8.78,4.16,8.78,9.25v14.57h-7.1v-13.35c0-2.29-1.21-4.02-3.78-4.02-2.24,0-3.69,1.59-3.83,3.74v13.63Z"/>
  <path class="cls-6" d="M150.16,80.51v-16.11c0-3.92,3.18-7.1,7.1-7.1h0v23.21h-7.1Z"/>
  <path class="cls-6" d="M177.01,80.51h-7.14l-9.53-23.21h7.7l5.37,14.43,4.95-14.43h7.47l-8.83,23.21Z"/>
  <path class="cls-6" d="M204.37,77.52c-1.03,2.24-3.36,3.64-6.26,3.64-6.82,0-11.53-5.18-11.53-12.33s4.44-12.23,11.3-12.23c4.16,0,5.98,2.29,6.44,3.36v-2.66h6.86v19.05c0,2.15.14,3.64.19,4.16h-6.82c-.09-.51-.19-1.77-.19-2.75v-.23ZM199.05,75.05c2.85,0,5.28-2.24,5.28-6.16s-2.38-6.12-5.28-6.12-5.32,2.1-5.32,6.12,2.38,6.16,5.32,6.16Z"/>
  <path class="cls-6" d="M222.47,80.51h-7.1v-23.21h6.86v2.66c1.26-2.2,4.11-3.27,6.49-3.27,5.84,0,8.45,4.16,8.45,9.25v14.57h-7.1v-13.35c0-2.29-1.21-4.02-3.78-4.02-2.33,0-3.83,1.73-3.83,4.06v13.31Z"/>
  <path class="cls-6" d="M258.8,77.52c-1.03,2.24-3.36,3.64-6.26,3.64-6.82,0-11.53-5.18-11.53-12.33s4.44-12.23,11.3-12.23c4.16,0,5.98,2.29,6.44,3.36v-2.66h6.86v19.05c0,2.15.14,3.64.19,4.16h-6.82c-.09-.51-.19-1.77-.19-2.75v-.23ZM253.47,75.05c2.85,0,5.28-2.24,5.28-6.16s-2.38-6.12-5.28-6.12-5.32,2.1-5.32,6.12,2.38,6.16,5.32,6.16Z"/>
  <path class="cls-6" d="M276.89,80.51h-7.1v-23.21h6.86v2.66c1.26-2.2,4.11-3.27,6.49-3.27,5.84,0,8.45,4.16,8.45,9.25v14.57h-7.1v-13.35c0-2.29-1.21-4.02-3.78-4.02-2.33,0-3.83,1.73-3.83,4.06v13.31Z"/>
  <path class="cls-6" d="M319.38,76.36c0,2.1.14,3.64.19,4.16h-6.82c-.05-.28-.19-1.31-.19-2.24-1.07,1.59-3.41,2.75-6.21,2.75-6.54,0-11.49-5.04-11.49-12.19s4.67-12.09,11.25-12.09c3.97,0,5.7,1.49,6.26,2.38v-12.42h0c3.87,0,7,3.14,7,7v22.65ZM307.24,74.67c2.75,0,5.23-1.96,5.23-5.79s-2.47-5.74-5.23-5.74-5.23,1.87-5.23,5.74,2.48,5.79,5.23,5.79Z"/>
  <circle class="cls-2" cx="153.71" cy="50.21" r="4.59" transform="translate(-6.06 25.27) rotate(-9.22)"/>
  <path class="cls-6" d="M96.9,34.89V11.69h0c3.92,0,7.1,3.18,7.1,7.1v16.11h-7.1Z"/>
  <circle class="cls-1" cx="100.45" cy="4.59" r="4.59" transform="translate(.56 16.15) rotate(-9.22)"/>
</svg>