<svg xmlns="http://www.w3.org/2000/svg" version="1.1" viewBox="237.0 147.5 1029.0 1107.5" width="304.8310352844593" height="328.0505868002677"><path d="M 310 589 L 310 957 341 957 L 372 957 372 1032.911 L 372 1108.822 377.750 1109.161 L 383.500 1109.500 383.238 1028.250 L 382.977 947 351.988 947 L 321 947 321 588.500 L 321 230 750 230 L 1179 230 1179 588.500 L 1179 947 1149.512 947 L 1120.023 947 1119.762 1028.250 L 1119.500 1109.500 1125.371 1109.155 L 1131.242 1108.810 1130.692 1032.905 L 1130.142 957 1159.571 957 L 1189 957 1189 589 L 1189 221 749.500 221 L 310 221 310 589 M 481.244 489.750 L 481.500 564.500 497.750 564.775 L 514 565.050 514 490.025 L 514 415 497.494 415 L 480.987 415 481.244 489.750 M 532 490.025 L 532 565.050 548.036 564.775 L 564.071 564.500 564.019 511.750 C 563.990 482.738, 564.337 459, 564.790 459 C 565.243 459, 580.213 482.851, 598.057 512.002 L 630.500 565.003 652 564.752 L 673.500 564.500 673.500 490 L 673.500 415.500 657.250 415.225 L 641 414.950 640.968 467.225 C 640.940 514.106, 640.780 519.294, 639.424 517.500 C 638.592 516.400, 624.093 492.892, 607.205 465.261 L 576.500 415.021 554.250 415.011 L 532 415 532 490.025 M 691.244 489.750 L 691.500 564.500 725 564.458 C 748.159 564.430, 760.352 564.024, 764.500 563.144 C 806.225 554.295, 829.063 528.412, 829.065 489.972 C 829.067 458.191, 816.853 437.443, 790.816 424.996 C 773.862 416.891, 760.555 415.007, 720.244 415.003 L 690.987 415 691.244 489.750 M 839 490 L 839 565 855.500 565 L 872 565 872 490 L 872 415 855.500 415 L 839 415 839 490 M 906.500 489.088 C 888.900 529.831, 874.347 563.589, 874.159 564.106 C 873.952 564.677, 880.977 564.939, 892.056 564.773 L 910.294 564.500 916.397 548.750 L 922.500 533 951.829 533.250 L 981.159 533.500 987.436 549 L 993.712 564.500 1012.472 564.772 C 1027.358 564.989, 1031.117 564.782, 1030.678 563.772 C 1027.391 556.206, 972.858 431.161, 969.832 424.250 L 965.782 415 952.141 415.005 L 938.500 415.010 906.500 489.088 M 724.750 445.549 C 724.337 445.980, 724 466.058, 724 490.167 L 724 534 738.750 533.983 C 761.410 533.956, 773.092 530.671, 782.792 521.598 C 791.806 513.166, 795.555 501.980, 794.778 485.840 C 794.373 477.426, 793.865 475.167, 791.123 469.599 C 785.743 458.670, 775.991 451.387, 761.500 447.474 C 755.018 445.725, 726.034 444.206, 724.750 445.549 M 950.394 460.500 C 949.970 461.600, 945.935 471.950, 941.426 483.500 L 933.230 504.500 942.063 504.787 C 946.921 504.945, 955.107 504.945, 960.253 504.787 L 969.610 504.500 960.387 481.500 C 953.358 463.971, 950.982 458.976, 950.394 460.500 M 563.539 586.112 C 546.355 588.616, 528.965 596.290, 515.970 607.105 C 485.089 632.804, 476.069 684.201, 495.541 723.500 C 511.402 755.510, 545.370 773.524, 586.438 771.705 C 625.950 769.956, 656.726 750.190, 669.979 718.051 C 679.925 693.932, 679.997 663.112, 670.163 639.364 C 664.489 625.663, 656.289 614.666, 645.110 605.765 C 632.431 595.670, 615.248 588.393, 598.636 586.082 C 589.663 584.834, 572.210 584.849, 563.539 586.112 M 354 606.500 L 354 624 379.500 624 L 405 624 405 696 L 405 768 424.500 768 L 444 768 444 696 L 444 624 469.500 624 L 495 624 495 606.500 L 495 589 424.500 589 L 354 589 354 606.500 M 684.506 590.132 C 684.219 590.884, 684.100 631.100, 684.242 679.500 L 684.500 767.500 723 767.457 C 754.514 767.421, 763.136 767.111, 770.516 765.747 C 823.103 756.029, 853.508 717.744, 848.102 668.049 C 846.577 654.035, 844.707 647.219, 839.310 636 C 835.371 627.814, 833.477 625.255, 825.619 617.500 C 810.693 602.769, 796.632 596.093, 770.500 591.328 C 758.818 589.198, 685.253 588.175, 684.506 590.132 M 911.716 594.750 C 910.309 597.913, 894.016 635.600, 875.509 678.500 C 857.002 721.400, 840.766 758.917, 839.430 761.871 C 838.093 764.825, 837 767.421, 837 767.640 C 837 767.860, 846.737 767.918, 858.638 767.770 L 880.277 767.500 887.527 749 L 894.778 730.500 929.670 730.237 L 964.563 729.975 972.158 748.737 L 979.753 767.500 1001.991 767.769 C 1019.649 767.983, 1024.123 767.777, 1023.715 766.769 C 1021.639 761.645, 947.908 592.697, 947.039 591.073 C 945.988 589.110, 945.091 589, 930.101 589 L 914.273 589 911.716 594.750 M 976 589.451 C 976 589.719, 989.351 610.314, 1005.669 635.219 C 1021.987 660.124, 1037.062 683.157, 1039.169 686.405 L 1043 692.310 1043 730.177 L 1043 768.043 1062.250 767.772 L 1081.500 767.500 1081.762 729.328 L 1082.024 691.155 1114.570 641.508 C 1132.470 614.203, 1147.363 591.218, 1147.665 590.431 C 1148.131 589.215, 1144.772 589, 1125.351 589 L 1102.488 589 1082.356 622.573 L 1062.224 656.146 1048.458 631.823 C 1040.886 618.445, 1032.374 603.450, 1029.542 598.500 L 1024.394 589.500 1000.197 589.232 C 986.889 589.085, 976 589.183, 976 589.451 M 569.500 621.956 C 563.032 623.361, 554.630 626.810, 549.664 630.099 C 521.659 648.649, 517.818 696.254, 542.373 720.475 C 549.735 727.736, 556.240 731.376, 566.585 734.022 C 597.071 741.819, 625.746 726.006, 634.629 696.500 C 637.351 687.457, 637.172 668.763, 634.274 659.500 C 628.827 642.092, 617.814 630.360, 601.179 624.245 C 593.816 621.539, 577.015 620.325, 569.500 621.956 M 723.667 625.667 C 723.300 626.033, 723 649.934, 723 678.780 L 723 731.227 743.750 730.759 C 761.681 730.355, 765.451 729.987, 771.500 728.048 C 786.740 723.163, 797.515 714.629, 802.698 703.335 C 807.832 692.150, 809.308 676.648, 806.441 664.041 C 804.838 656.991, 799.915 647.652, 795.183 642.683 C 787.162 634.259, 771.906 627.822, 755.789 626.061 C 744.990 624.881, 724.702 624.632, 723.667 625.667 M 918.226 668.775 C 912.575 683.474, 907.962 695.837, 907.976 696.250 C 907.989 696.663, 917.723 697, 929.607 697 C 947.376 697, 951.122 696.759, 950.694 695.645 C 943.764 677.585, 929.370 642.011, 929 642.028 C 928.725 642.040, 923.877 654.077, 918.226 668.775 M 587.487 1198 L 587.500 1252.500 624.500 1252.519 L 661.500 1252.538 624.759 1252.257 L 588.017 1251.975 587.745 1197.738 L 587.474 1143.500 587.487 1198 M 777.487 1198 L 777.500 1252.500 785 1252.500 L 792.500 1252.500 792.513 1198.250 L 792.526 1144 792.254 1198 L 791.983 1252 785 1252 L 778.017 1252 777.745 1197.750 L 777.474 1143.500 777.487 1198 M 523.461 1191 C 523.461 1216.575, 523.591 1227.038, 523.749 1214.250 C 523.907 1201.463, 523.907 1180.538, 523.749 1167.750 C 523.591 1154.963, 523.461 1165.425, 523.461 1191 M 349.485 1205 L 349.500 1252.500 357 1252.563 L 364.500 1252.626 357.260 1252.271 L 350.020 1251.916 349.745 1204.708 L 349.470 1157.500 349.485 1205 M 602.864 1238.266 C 603.286 1238.687, 616.652 1238.911, 632.566 1238.765 L 661.500 1238.498 631.799 1237.999 C 615.463 1237.725, 602.443 1237.845, 602.864 1238.266 M 444.250 1238.748 C 452.362 1238.916, 465.637 1238.916, 473.750 1238.748 C 481.863 1238.580, 475.225 1238.442, 459 1238.442 C 442.775 1238.442, 436.137 1238.580, 444.250 1238.748 M 536.308 1238.748 C 543.353 1238.920, 554.603 1238.919, 561.308 1238.747 C 568.014 1238.574, 562.250 1238.433, 548.500 1238.434 C 534.750 1238.434, 529.264 1238.576, 536.308 1238.748 M 707.655 1252.250 C 707.909 1252.662, 711.215 1253, 715 1253 C 718.785 1253, 722.091 1252.662, 722.345 1252.250 C 722.600 1251.838, 719.295 1251.500, 715 1251.500 C 710.705 1251.500, 707.400 1251.838, 707.655 1252.250 M 1149.885 1252.290 C 1150.322 1252.724, 1154.914 1252.946, 1160.090 1252.783 L 1169.500 1252.487 1159.296 1251.993 C 1153.683 1251.722, 1149.449 1251.855, 1149.885 1252.290 M 433.315 1252.749 C 443.664 1252.912, 460.314 1252.911, 470.315 1252.748 C 480.317 1252.585, 471.850 1252.452, 451.500 1252.453 C 431.150 1252.453, 422.967 1252.586, 433.315 1252.749 M 524.314 1252.749 C 533.561 1252.914, 548.411 1252.913, 557.314 1252.748 C 566.216 1252.582, 558.650 1252.447, 540.500 1252.448 C 522.350 1252.448, 515.066 1252.583, 524.314 1252.749" stroke="none" fill="#ffffff" fill-rule="evenodd"/><path d="M 842.871 1141.956 C 831.260 1144.072, 822.489 1150.231, 817.947 1159.456 C 815.359 1164.713, 814.833 1166.950, 814.876 1172.525 C 815.006 1189.472, 822.107 1197.237, 844.556 1204.977 C 851.109 1207.237, 858.331 1210.176, 860.605 1211.509 C 869.217 1216.555, 870.361 1226.695, 863.186 1234.376 C 854.395 1243.789, 836.133 1243.124, 826.320 1233.033 L 823.140 1229.764 817.570 1234.573 C 814.507 1237.217, 812 1239.924, 812 1240.587 C 812 1242.241, 818.212 1247.557, 822.997 1249.999 C 835.828 1256.544, 854.042 1256.629, 866.613 1250.202 C 872.416 1247.235, 879.517 1238.970, 881.568 1232.796 C 885.273 1221.640, 883.024 1209.178, 876.046 1202.200 C 871.678 1197.832, 867.712 1195.920, 852.723 1190.957 C 843.549 1187.919, 838.997 1185.834, 836.072 1183.329 C 822.332 1171.568, 834.270 1152.977, 854.057 1155.320 C 859.610 1155.978, 864.319 1158.124, 868.223 1161.776 L 870.947 1164.323 876.223 1159.431 C 879.126 1156.740, 881.628 1154.259, 881.784 1153.917 C 882.439 1152.485, 873.844 1146.085, 868.663 1144.147 C 862.297 1141.765, 849.761 1140.700, 842.871 1141.956 M 987.347 1142.030 C 961.040 1146.754, 942.859 1167.478, 941.315 1194.500 C 939.954 1218.333, 951.678 1239.542, 971.423 1248.965 C 981.018 1253.544, 987.390 1255, 997.839 1255 C 1013.475 1255, 1026.632 1249.559, 1037.537 1238.583 C 1067.587 1208.336, 1054.507 1155.474, 1014.032 1143.584 C 1007.187 1141.574, 994.126 1140.813, 987.347 1142.030 M 315 1151 L 315 1158 332.500 1158 L 350 1158 350 1205 L 350 1252 357.500 1252 L 365 1252 365 1205 L 365 1158 382 1158 L 399 1158 399 1151 L 399 1144 357 1144 L 315 1144 315 1151 M 415 1198 L 415 1252 451.500 1252 L 488 1252 488 1245.500 L 488 1239 459 1239 L 430 1239 430 1221.500 L 430 1204 455.500 1204 L 481 1204 481 1197 L 481 1190 455.500 1190 L 430 1190 430 1174 L 430 1158 457.500 1158 L 485 1158 485 1151 L 485 1144 450 1144 L 415 1144 415 1198 M 508.667 1144.667 C 508.300 1145.033, 508 1169.333, 508 1198.667 L 508 1252 540.500 1252 L 573 1252 573 1245.517 L 573 1239.035 548.250 1238.767 L 523.500 1238.500 523.240 1191.250 L 522.980 1144 516.157 1144 C 512.404 1144, 509.033 1144.300, 508.667 1144.667 M 588 1198 L 588 1252 624.500 1252 L 661 1252 661 1245.515 L 661 1239.030 631.947 1238.765 L 602.894 1238.500 602.894 1221.500 L 602.894 1204.500 628.447 1204.233 L 654 1203.966 654 1196.983 L 654 1190 628.667 1190 C 614.733 1190, 603.146 1189.814, 602.917 1189.586 C 602.687 1189.359, 602.635 1182.159, 602.799 1173.586 L 603.098 1158 630.549 1158 L 658 1158 658 1151 L 658 1144 623 1144 L 588 1144 588 1198 M 667 1144.778 C 667 1145.206, 676.194 1169.394, 687.431 1198.528 L 707.862 1251.500 715.112 1251.500 L 722.362 1251.500 742.691 1200 C 753.872 1171.675, 763.290 1147.487, 763.619 1146.250 C 764.202 1144.056, 764.021 1144, 756.358 1144.014 L 748.500 1144.028 732.027 1188.148 C 716.876 1228.727, 715.463 1232.048, 714.428 1229.514 C 713.808 1228, 706.596 1208.142, 698.401 1185.387 L 683.500 1144.013 675.250 1144.006 C 670.712 1144.003, 667 1144.350, 667 1144.778 M 778 1198 L 778 1252 785 1252 L 792 1252 792 1198 L 792 1144 785 1144 L 778 1144 778 1198 M 905 1198 L 905 1252 912.500 1252 L 920 1252 920 1198 L 920 1144 912.500 1144 L 905 1144 905 1198 M 1075 1198 L 1075 1252 1082.490 1252 L 1089.979 1252 1090.240 1208.083 L 1090.500 1164.166 1120.078 1207.833 L 1149.656 1251.500 1159.328 1251.786 L 1169 1252.072 1169 1198.036 L 1169 1144 1161.510 1144 L 1154.021 1144 1153.760 1188.250 L 1153.500 1232.500 1124 1188.282 L 1094.500 1144.064 1084.750 1144.032 L 1075 1144 1075 1198 M 987.746 1156.022 C 977.538 1158.601, 967.315 1166.330, 962.563 1175.062 C 958.639 1182.270, 957.026 1189.166, 957.012 1198.782 C 956.987 1216.441, 965.201 1230.228, 980 1237.365 C 986.076 1240.296, 987.219 1240.500, 997.524 1240.500 C 1007.934 1240.500, 1008.913 1240.320, 1015.129 1237.259 C 1023.325 1233.222, 1030.095 1226.158, 1034.224 1217.335 C 1036.825 1211.778, 1037.392 1209.182, 1037.784 1201.047 C 1038.733 1181.326, 1031.148 1167.136, 1015.531 1159.418 C 1009.227 1156.302, 1007.014 1155.740, 999.846 1155.432 C 995.256 1155.235, 989.811 1155.500, 987.746 1156.022" stroke="none" fill="#202d5f" fill-rule="evenodd"/></svg>